<?xml version="1.0" encoding="utf-8"?>
<!-- Generator: Adobe Illustrator 26.5.0, SVG Export Plug-In . SVG Version: 6.00 Build 0)  -->
<svg version="1.1" id="Layer_1" xmlns="http://www.w3.org/2000/svg" xmlns:xlink="http://www.w3.org/1999/xlink" x="0px" y="0px"
	 viewBox="0 0 1437 1389" style="enable-background:new 0 0 1437 1389;" xml:space="preserve">
<style type="text/css">
	.st0{display:none;fill:#E4E4E4;}
	.st1{fill-rule:evenodd;clip-rule:evenodd;fill:#8A8A8A;fill-opacity:0.1;}
</style>
<rect class="st0" width="1437" height="1389"/>
<path class="st1" d="M699.8,354.3c-5.2,30.4-4.9,109.6,2.8,119.8c17.7,24.8,34.7,5.4,38.5-43.8c3.1-42.9,5.9-63.6,6.2-74.5
	C748.7,331.4,703.2,333.3,699.8,354.3z M931.9,361.1c-24.3,6.8-159.9,180-159.9,204.3c0,6.8,14.9,9,26.4,3.7
	c11.4-5.4,38.9-35.1,72.5-79.1c37.5-48.7,77.4-99.4,87.1-110.1C973.1,362.8,960,353.3,931.9,361.1z M475.3,398.3
	c-6.2,3.2-5.2,4.6,13.5,29.7c71.5,94.5,75.3,105.7,110.7,102.5c26.7-2.4,26.7-3.7-9.4-50.4c-41.3-54.1-63.8-79.6-71.8-82.6
	C509.3,394,482.9,394.4,475.3,398.3z M1051.2,414.2c-20.1,5.8-126.6,94.5-126.6,105.5c0,20.5,52.7-8.5,146.7-80.4
	C1099.4,417.6,1088.3,403.5,1051.2,414.2z M339.3,462.4c-31.6,4.4,15.3,44.6,52,44.6c29.5,0,30.5-9.7,3.1-28
	C378.2,467.7,361.9,459.2,339.3,462.4z M1175.7,497.5c-19.4,7.3-44.1,22.9-87.4,43.1c-51.3,23.9-105.8,50.9-122.1,60.9
	c-28.1,17-4.9,21.4,30.2,5.4c11.8-5.4,47.5-20.9,79.4-34.3c76-32.1,153.7-67.9,153.7-70.4C1229.9,492.6,1196.6,489.7,1175.7,497.5z
	 M703.2,512.3c-6.2,4.4-5.2,27.5,1.4,32.1c23.6,16.6,54.1-13.4,32.3-31.7C732,508.7,708.8,508.4,703.2,512.3z M419.5,534.7
	c-8.3,4.1-4.9,7.5,50.3,49c64.9,48.7,70.8,51.1,98.9,42.1c12.8-4.1,11.4-6.1-16.3-28.2C481.2,541.3,442.4,523,419.5,534.7z
	 M222.4,588.1c-12.8,6.8-4.9,10.2,74.2,32.1c79.4,21.9,122.8,37.5,183.5,65c34.3,15.6,91.6,16.3,73.5,0.7
	C512.8,651.9,249.1,573.7,222.4,588.1z M1188.2,633.8c-191.8,48.2-206.8,53.3-193.6,62.6c6.2,4.4,15.6,3.7,55.2-4.6
	c258.8-54.1,263.7-52.1,232.1-68.2C1265.6,615.3,1258.3,616.1,1188.2,633.8z M872.5,643.8c-26.4,16.1-28.8,21.2-12.5,24.4
	c33,6.1,79.1-25.8,78.8-25.6c1.7-1.2,3.1-2.9,2.8-4.6c0-1.7-1.4-3.4-3.1-4.6C921.4,623.4,900.3,626.8,872.5,643.8z M698.7,673
	l-7.3,19.5c-14.2,39-53.4,72.6-84.3,72.6c-22.5,0-9,13.4,16.3,16.3c33.7,3.7,63.5,43.6,64.9,82.6c1,26.3,39.2,26.8,46.5,7.8
	c19.1-49.2,34.7-68.9,75.3-90.8c25-13.4,25.3-15.8,4.2-25.8c-34-16.1-42-24.6-62.1-66.5C729.6,641.4,704.3,658.7,698.7,673z
	 M204.7,691.1c-6.9,4.9-6.9,11.4,0.3,22.2c9,13.2,21.5,16.1,122.8,26.3c33.3,3.4,74.6,8.5,91.6,11.4c35,6.1,38.2,4.9,35.7-10.7
	c-2.4-14.6-10.1-20.2-32.3-25.1c-33-6.8-41.3-8-111.7-15.8c-37.1-4.1-73.5-8.5-81.5-9.7C210.6,686.7,211.3,686.7,204.7,691.1z
	 M735.5,737.8c6.9,7.3,17.7,13.9,31.9,19.7c23.2,9.5,25.3,11.2,14.9,13.6c-10.4,2.4-37.1,18.8-49.3,30.2l-10.8,10.2l-9.7-11
	c-9.7-10.7-32.3-24.1-45.8-27c-6.2-1.5-5.2-2.7,10.4-12.2c30.5-18.8,37.5-46.5,44.1-38.5C723.4,724.9,729.6,731.7,735.5,737.8z
	 M921.8,760.2c-14.9,4.1,5.2,27.3,26.4,30c36.1,4.9,195,4.4,195-0.5c0-7.1-19.1-21.4-32.3-24.4
	C1091.4,761.2,934.3,756.8,921.8,760.2z M1161.9,768.5c-6.9,12.9,22.9,24.6,74.9,29c52.7,4.4,59.7,1.7,39.2-15.6
	C1258.7,767.8,1168.1,757.1,1161.9,768.5z M478.4,783.9c-18.4,12.9,6.9,38,37.1,36.8c20.8-0.7,26-8.3,16.7-24.1
	C524.6,783.1,490.9,775.3,478.4,783.9z M338.3,795.8c-42.7,6.1-102.3,13.2-135.3,15.6c-44.8,3.7-59,6.3-59,11.9
	c0,9.7,29.5,20.9,50,19c7.6-0.7,34.3-3.2,59.3-5.1c101.6-8.8,171.7-21.7,164.8-30.4C408,793.6,379.9,789.7,338.3,795.8z
	 M980.4,856.9c-49.6,16.8,9,43.8,62.4,28.7c16.7-4.6,1.7-18.8-14.9-23.9C1000.5,853.3,993.6,852.5,980.4,856.9z M865.6,874.2
	c-20.1,4.6-25.7,17-10.8,25.3c5.5,3.2,35.7,21.9,67.3,41.6c130.1,81.8,167.9,101.6,184.2,96.4c26-8.3,6.6-24.6-131.5-108.4
	C899.9,883.7,876,871.8,865.6,874.2z M543.7,892c-21.5,7.5-219.3,152.2-219.3,160.2c0,15.6,46.8,11.2,69.7-6.6
	c17.3-13.4,70.4-52.4,144.7-105.7C604.7,892.5,607.1,869.6,543.7,892z M1095.6,900.3c-11.1,3.4-19.1,14.6-12.5,18
	c89.2,43.8,133.2,52.4,133.2,25.6C1216,928.8,1118.2,893.5,1095.6,900.3z M324.4,928.5c-52,18.5-53.4,19.5-39.9,25.6
	c25.7,11.7,148.8-27,124.9-39.5C394.8,907.1,375.7,910.3,324.4,928.5z M715.4,929c-16,8.5-21.9,47,17.3,47.5
	c15.3,0.2,26.7-11,26-29.7C758,927.3,735.5,918,715.4,929z M600.5,960.7c-25,21.4-85.7,92.8-85.7,100.8c0,21.4,59.3-27,108.6-89.4
	C643.9,946.8,626.6,938.3,600.5,960.7z M847.9,961.4c-14.2,12.2,112.7,122.7,133.2,116.2c18-5.8,12.1-13.1-51-63.8
	C864.6,960.4,855.5,954.8,847.9,961.4z M717.1,1017.9c-15.3,6.8-25.7,146.4-11.1,154.4c31.6,18,45.1-7.1,44.8-83
	C750.8,1020.8,743.8,1006.2,717.1,1017.9z"/>
</svg>
