<?xml version="1.0" encoding="utf-8"?>
<!-- Generator: Adobe Illustrator 26.5.0, SVG Export Plug-In . SVG Version: 6.00 Build 0)  -->
<svg version="1.1" id="Layer_1" xmlns="http://www.w3.org/2000/svg" xmlns:xlink="http://www.w3.org/1999/xlink" x="0px" y="0px"
	 viewBox="0 0 1024 290" style="enable-background:new 0 0 1024 290;" xml:space="preserve">
<style type="text/css">
	.st0{fill:#3A405A;}
</style>
<path class="st0" d="M681.7,255.1c-7.3-0.4-14.1-1.4-20.9-1.2c-9.4,0.3-18.7,2-28.1,2.2c-5.8,0.1-11.6-2.3-17.4-2.2
	c-6.2,0.1-12.3,1.7-18.5,2.6c-2,0.3-4.5,1.3-5.9,0.5c-4-2.3-7.2-2.7-9.5,2c-7.1-6.9-15.4-3.4-22.9-3.7c-8.6-0.4-17.3,0.4-25.9,1.1
	c-9,0.8-17.9-2-27.2,0.9c-5.2,1.6-11.4-0.4-17.2-0.4c-6.2,0-12.4,0.7-18.5,0.7c-9.9,0-19.9,0-29.8-0.5c-5.3-0.2-10.6-1.8-15.9-1.9
	c-3-0.1-6,1.8-9,2.2c-2,0.2-4.2-0.7-6.2-1.2c-1-0.2-2-1.2-2.8-1c-12.8,2.7-25.7,0-38.5,0c-8.7,0-17.5,1.1-26.2,1.1
	c-9.7,0-19.3-0.7-29-1.2c-5.8-0.3-11.5-1.2-17,2.4c-3.7,2.4-7.7,0.6-11.2-2.1c-2-1.5-6.6-2.9-7-2.4c-3.7,5.5-8.6,2-12.8,2
	c-7.1,0-14.1,0.2-21.5-1.5c-5.1-1.2-12.2,0.2-18.5-0.1c-5.1-0.2-10.1-0.3-15.1-0.9c-13.2-1.6-26.8-2-39.4-5.7
	c-7.8-2.3-15.2,0.2-22.7-1.8c-7.1-1.9-14.6-2.2-22-2.8c-9.2-0.7-18.4-0.8-27.6-1.5c-1.4-0.1-2.8-2-3.3-2.4c-7.9,1.2-15.7,2.4-24,3.7
	c0-2.4,0-4.2,0-6.1c-2.6,9.1-10.4,5.6-15.6,5.9c-5.9,0.4-13,0.1-14.9-8.9c-6.8,6.9-10.5-0.9-15.6-2.3c-3.5-0.9-6.1-7.8-10.4-1.1
	c-4.2-3.4-4.8-6.6-2-10.9c2-3,0-4.5-3.3-5c-2.7-0.4-5.3-1.6-8.4-3.3c5.6-1.7,5.5-4.7,3.4-8.3c11.9-7.8,14.1-7.9,23,0
	c-0.3-3.9-0.5-6.1-0.7-8.4c5.1-0.3,10.6-0.5,16-0.8c0-0.9,0-1.8,0.1-2.7c-4.9-0.8-9.8-1.6-14.8-2.2c-0.3,0-0.7,0.6-1.1,1
	c-5,5.7-5,5.7-10.6,5.1c-2.2-2.7-4.3-4.7-5.5-7.1c-1.3-2.6-1.9-5.5-2.5-8.4c-1-4.9-2.9-10-2.2-14.6c0.8-5.1,4.2-9.9,6.6-15.2
	c0.1,0.1-1.2-1-2.4-2.1C8.1,145.4,7,144.1,5,142c2.5-0.9,4.2-1.5,6.4-2.3c-0.9-1.6-1.8-3.4-2.8-5.2c1.9-1.3,3.8-2.6,5.7-4
	c-0.6-0.2-1.2-0.3-1.7-0.5c0.4-3.8,0.8-7.7,1.3-12.1c-1.9,0.8-3.2,1.3-4.5,1.9c-3.4-7,2.6-14.9,13.1-16.8c-1.7-1-3-1.8-4.3-2.6
	c0.8-2.1,1.5-4.1,2.5-6.8c-5.3,1.3-7.7,0.9-5.7-5.1c1.9-5.6,7.9-11.7,13.6-12.2c2.8-0.2,5.7,0.5,6.2-3.8c0.1-0.8,2.5-1.9,3.8-1.9
	c5.9-0.1,11.7,0.3,17.6,0.3c2,0,4-0.8,6.4-1.3c0,1.7,0,3.2,0,4.2c2.8-2.1,5.2-4.8,8.2-5.9c4.1-1.5,8.6-1.7,13.4-2.6
	c-0.2,2.1-0.3,3.6-0.7,7.5c4.1-2.6,6.7-4.4,9.5-6.1c0.7-0.4,1.4-0.9,2.2-0.9c12.8-0.1,25.7,0,37.8,0c2.3-2.9,4.6-5.9,7.1-8.8
	c0.3-0.3,1.6-0.4,1.8-0.2c3.8,6,10.1,0.3,14.7,3.2c1,0.6,4.4-0.6,4.8-1.7c3.5-8.2,5.2-2.6,7.1,0.9c3.5-3.6,6.7-8,10,0.1
	c0.2,0.6,4.5-0.4,6.5-2c2.2,1,4.5,2,5.2,2.3c4.5-2,8.3-3,11.2-5.2c2.1-1.6,3-4.8,4.9-8.1c-5.7-0.5-10.9-1-17.9-1.7
	c9.8-7.3,18.7-6.1,27.8-5.3c5.1,0.5,10.4-0.9,15.4-2.6c1.7,1,3.3,2.8,5,2.8c6.6,0,13.2-0.8,19.8-0.7c3.3,0,8.2-2.5,8.9,4
	c0,0.2,4.1,0.3,4.1,0.1c1.2-7.3,6.7-3.6,11.1-4.7c-3.5,11.9,5.6,5.4,8.4,5.8c6.2,0.9,12.7-0.2,19.8-0.6c0.2,3.9,0.4,7.5,0.5,11.3
	c2.7-1.3,6.1-5.1,7.1,2.6c1.8-3.4,3.3-7,6.9-2.8c0.2,0.2,1.1,0,1.5-0.3c5.2-3.6,10.4-2.5,15.5,0.2c2.2,1.1,4.3,3.1,6.2-0.4
	c0.3-0.5,2.2-0.5,3.1,0c5.2,2.9,8,2,10.9-4.4c1.1,1.6,1.6,3.3,2.8,4.1c1.3,0.8,4.2,1.5,4.5,0.9c4-5.9,8-4.3,13-1.1
	c2.6,1.7,6.5,1.2,9.8,1.8c2.1,0.4,4.2,0.8,7.3,1.4c0.1-0.3,0.8-1.9,2-4.6c3.3,0.7,7.3,1.6,11.4,2.3c0.6,0.1,1.4-0.4,2-0.8
	c4.3-2.1,8.6-4.5,13-6.3c1.4-0.6,3.4,0.5,5.2,0.7c4.2,0.5,8.5,0.9,13.8,1.4c-0.1-0.2,0.6,1.1,0.6,2.5c0.1,4.4,2.4,6,6.6,6
	c3.4,0,6.8,0.2,10.1,0.7c5.2,0.8,9.7,0.9,11.1-5.7c0.2-0.7,1.5-1.2,3.3-2.4c-0.2,3-0.3,4.9-0.6,8.7c2.2-2,3.6-3.2,4.2-3.8
	c5.4-3.3,11.1-0.2,16.9-2.4c2-0.7,5.2,1.9,8.7,3.3c5.2-3.1,11.7-1.2,18.6,0.4c6,1.4,12.2,5,18.7-0.7c2.2-2,7.5-1.4,11.1-0.7
	c4.7,1,9.2,3.3,13.9,5c0.6-3.5,2.7-5.2,7.5-4c3.6,0.9,7.7,0.2,11.1,0.2c-0.8-3-2.2-5.9-2.1-8.6c0.1-0.9,4-1.6,6.8-2.6
	c0.7,4.5,1.2,7.9,1.8,12c0.8,0.2,2.6,0.8,4.5,1.3c0.2,0.4,0.5,0.8,0.7,1.2c-1.1,0.3-2.2,0.7-3.4,1c0.5,0.5,1,1.1,1.5,1.6
	c1.7-1.5,3.4-3,5.1-4.5c0.1,0.5,0.2,1,0.3,1.4c2.6-0.5,5.2-1.4,7.7-1.5c2.9-0.1,5.8,0.8,8.7,1c7.2,0.4,14.3-0.1,21.5,2.2
	c3.7,1.2,8.6-0.9,12.9-1.8c2.4-0.5,4.6-1.6,7-2.4c-0.5-0.8-1-1.8-1.6-2.9c0.7-0.1,1.4-0.4,1.5-0.3c6.5,7.1,14.8,3.2,22.3,3.8
	c6,0.5,12.3-0.7,17.8,2.9c0.6,0.4,0.9,1.2,1.2,1.7c2.2-1.4,4.5-2.9,6.7-4.3c0.4,1.8,0.8,3.6,1.2,6c0.6-0.2,1.6-0.2,2.3-0.8
	c4.5-3.8,8.2-4.3,14.4-1.6c7.5,3.2,16.4,3.2,24.8,3.8c9,0.6,18.1,0.2,27.2,0.1c2.1,0,4.1-0.6,6.2-1c3.4-0.6,7-3.4,9.6,1.9
	c0.6,1.2,4.5,0.9,6.9,0.9c4.2,0,9.1-3.5,11.9,2.8c0.1,0.3,1.2,0.5,1.6,0.3c4-2.1,8.1,0.3,11.6-0.1c9.7-1.1,19.6,1.2,29.4-2.5
	c4.3-1.6,10.1,0.7,15.1,1.8c8.9-2.3,17.2-9.6,27.8-3.4c1.1,0.7,3.6-1.5,5.5-1.6c2-0.2,4,0.5,6,0.9c-0.3,0.8-0.6,1.6-0.9,2.3
	c3,0.1,6.1,0.1,9.2,0.5c2.9,0.4,7.2-0.1,3.6,6.5c9.1-1.3,16.5-3.3,24-3.1c16.4,0.4,33,1.1,49.2,3.5c6,0.9,11.5,3,17.7,0.9
	c1.1-0.4,2.7,0.6,5.8,1.5c-4,1.4-6.3,2.2-7.8,2.7c0.2,1.2,0.3,2.3,0.5,3.5c-4,0.1-6.2,3.9-10.6,4.4c-7.3,0.8-14.4,4.1-21.4,7.3
	c8.8-0.4,17.7-1.1,26.5-1.2c3.7,0,7.9,0.2,11,2c3.1,1.7,5,5.5,7.4,8.3c-2.5,2.1-4.8,5.1-7.7,6.1c-5.7,2-11.8,3-17.8,5.2
	c2.4,0.1,4.7,0.1,7,0.5c1.8,0.3,1.9,1.4,1.9,4c0,1.2,1.4,2.9,2.6,3.3c1.7,0.6,3.8,0.2,5.8,0.3c3.4,0.2,8-1.7,7.3,5.1
	c-3.6,1.4-8.1,3.1-12.7,4.9c0.2,0.4,0.4,0.8,0.6,1.2c4.5,0.6,8.9,1.2,13.4,1.8c-0.1,0.6-0.2,1.3-0.3,1.9c-11.9,4.4-25.8,2-36.8,10.1
	c1.2,2.1,1.2,2.1,13,2.2c5,0.1,9.9,0,15,0c1,6.7-3,7.6-7.6,7.7c-4.8,0.1-9.6,0-14.4,0c0,0.7-0.1,1.4-0.1,2c1.4,0.4,2.8,0.7,5.1,1.4
	c-6.5,5.1-12.4,9.7-18.2,14.1c10,5.9,22.9-1.6,34.1,4.2c-12.6,8.7-26.1,6.8-39.4,6.8c-1,0-2.1,0.2-3.3,0.4c0.4,2.5,0.7,4.6,1,6.5
	c3.4,1.3,7.1,2.6,10.9,4c-0.1,0.6-0.1,1.2-0.2,1.8c-9,1.9-18.1,3.9-27.1,5.8c-3.5-4-8.1-1.3-13.3-0.9c2.9,1.8,4.8,3.2,6.8,4.2
	c1.1,0.6,2.4,0.8,3.6,0.9c6.5,0.4,12.9,0.6,19.4,1.1c0.4,0,0.8,0.9,1.8,2.1c-2.1,0.5-3.9,1-5.6,1.2c-5.3,0.5-10.5,0.9-15.8,1.3
	c-0.8,0.1-2,0.2-2.5-0.2c-5.6-4.9-10.4-5.4-17.6-1.5c-6.3,3.4-14.6,3.1-21.8,4.5c4.6,1.1,10.1,2.2,15.4,3.9c2.1,0.7,4.6,2.3,5.3,4.1
	c1.5,4-2.1,3.1-4.3,3.6c-2.2,0.5-4.2,1.8-6.1,3c-4.2,2.6-10.5,1.2-11.9,6.2c-8.1,0-15.6-1.1-22.6,0.3c-8.8,1.7-16.9,2.5-25.1-1.8
	c-1.8-0.9-4-1.1-6.1-1.3c-3.8-0.3-7.7-0.4-11.2-0.6c-2.5,0.6-5.2,1.8-7.9,1.8c-4,0-7.4,0-7.4,5.3c0,3.7,0.2,7.6-5.1,7.8
	c0.7,8.8-8.6,1.5-11.3,6.9c-0.9,1.8-9.3-0.1-14.3-0.3c-0.1-1-0.3-1.9-0.4-2.9c3.6-1.7,7.2-3.3,10.7-5.1c1.7-0.9,4-1.8,4.5-3.2
	c0.5-1.4-1-3.4-1.9-5.8c0.4-0.8,1.2-2.7,2.5-5.6c-2.4,1.2-4.1,1.8-5.6,2.7c-7.2,4.3-14.3,8.7-22.2,1.2c-0.3-0.3-2.4,0.8-3.4,1.6
	c-2.2,1.8-4.1,5-6.5,5.5c-4.2,0.9-7.5-1.1-7.1-5.8c-7.4,0.8-15.1,1.6-23.5,2.6c-5,10.9-12.3,2.7-18.2,0.7c-1.2,2.6-2.1,4.8-3.5,7.9
	c0.1,0.3,0.8,1.7,1.4,3.2c-1.8,0.5-3.5,1.5-5.3,1.5C707.2,256.1,694.7,255.6,681.7,255.1 M234,51.7c-5.1-0.5-10.2-1.1-16.2-1.7
	c4.6,5.6,9.6,6.2,18.6,2.4c0.2-0.4,0.4-0.9,0.6-1.3C236.3,51.3,235.6,51.6,234,51.7 M96.2,236.5c-0.3-0.4-0.7-0.8-1-1.3
	C95.3,235.9,95.3,236.5,96.2,236.5z"/>
<path class="st0" d="M57,252.3c-3.4-1.7-6.4-3.1-9.3-4.6c0.1-0.8,0.3-1.5,0.4-2.3c6.6,0.5,13.3,1,20.1,1.5
	C67.2,256.8,61.2,251.7,57,252.3z"/>
<path class="st0" d="M105.6,247.4c3,0.8,5.5,1.7,8.5,2.7c-5.6,7.1-10.4,6.9-16.7-0.4C100.2,248.8,102.6,248.1,105.6,247.4z"/>
<path class="st0" d="M343.1,50.2c-2.7-0.8-5-1.6-7.9-2.7c0,0,0.5-1.4,1-3c6.3,1.9,13.7-1.9,19.3,2.6c-0.1,0.6-0.2,1.2-0.4,1.9
	C351.2,49.3,347.4,49.7,343.1,50.2z"/>
</svg>
