<svg width="32" height="25" viewBox="0 0 32 25" fill="none" xmlns="http://www.w3.org/2000/svg">
<path fill-rule="evenodd" clip-rule="evenodd" d="M10.2606 0.0882341C0.656678 0.5337 0 1.29736 0 11.6491C0.0205212 20.7069 0.759123 23.8464 2.91385 23.8464C3.03697 23.8464 3.8579 24.101 4.74031 24.3979C9.15237 25.9252 30.3302 24.2919 31.2126 22.3403C31.9104 20.813 32.2797 8.33995 31.7461 4.86108C31.192 1.33978 29.8172 0.236724 26.1849 0.321574C23.0657 0.406425 23.5377 1.76403 26.698 1.76403C29.0579 1.76403 29.0784 1.82767 29.1194 11.7976C29.1605 21.3433 29.1811 21.11 27.7651 21.4706C25.1794 22.1282 10.2605 22.2767 3.85794 22.3827C3.26283 21.216 3.13962 21.5979 2.54451 12.3491C1.99043 3.48226 2.011 3.43983 8.0237 2.61254C12.2305 2.0398 12.9898 1.97616 17.566 1.84888C21.8139 1.72161 22.4911 1.63675 22.4911 1.31857C22.4706 0.342783 16.8684 -0.229956 10.2606 0.0882341ZM26.3697 3.67317C25.672 4.24591 24.0712 6.00657 18.8178 11.7976C17.0735 13.728 17.1351 13.728 15.3498 12.434C12.6205 10.4824 10.2606 8.99755 8.41368 7.27932C5.78697 4.83987 4.12472 3.8853 3.55012 4.47925C3.20126 4.83987 6.17675 7.36417 10.1373 11.5006L11.8612 13.3037C11.7996 13.3673 8.26995 16.1886 6.68982 18.3947C5.62272 19.8796 6.75147 20.1554 7.69544 19.4554C8.68046 18.6917 10.3221 16.8038 12.7436 14.2159L13.6055 14.5765C14.9804 15.1492 17.6276 14.7674 18.551 13.8765C19.2077 13.2401 19.8029 13.0279 19.8029 13.4098C19.8029 13.6855 24.0918 18.0553 25.6104 19.413C26.4723 20.1766 29.0168 21.0251 26.8621 18.4372C25.282 16.5705 22.1629 13.3249 21.0342 12.5188C20.7674 12.3279 20.5827 12.137 20.6238 12.0946C23.5994 10.1006 26.6774 6.72779 27.7445 4.77623C29.0784 2.42163 26.7186 3.39741 26.3697 3.67317Z" fill="white"/>
</svg>
