<svg width="26" height="25" viewBox="0 0 26 25" fill="none" xmlns="http://www.w3.org/2000/svg">
<path fill-rule="evenodd" clip-rule="evenodd" d="M9.04339 0C7.66189 0 6.92915 0.575444 6.92915 1.06564C6.92915 1.8329 7.47342 1.93946 12.0994 2.15259C17.6672 2.40834 22.8166 2.87723 23.1096 3.17561C23.5701 3.64449 23.7794 5.22162 23.6329 7.03321C23.5492 8.03491 23.4236 11.5089 23.3189 14.7697C23.1305 22.144 23.8421 21.5472 15.0717 21.7603L13.2925 21.803C13.3134 21.0783 13.3762 16.6453 13.3972 14.9189C14.5275 14.9189 15.4693 14.9402 16.1392 14.8976C17.9184 14.7911 17.2696 14.0025 16.3276 13.4697C15.4066 12.9368 14.3391 13.0008 13.1878 13.0008V11.8712C13.1878 8.50379 14.988 6.43646 16.6835 7.86441C18.0231 8.99399 19.1744 8.41854 18.1487 7.11846C15.3439 3.4953 10.5295 5.73313 10.2574 10.7629L10.1527 12.8942L8.58285 13.1073C6.17569 13.427 6.86652 14.9189 9.39927 14.9189H10.2365C10.2993 16.6879 10.4668 21.1423 10.5086 21.9521C9.85973 21.9734 8.79208 21.8669 5.98722 22.2505C3.37074 22.5915 3.60107 23.1883 3.34989 15.5583C3.03591 6.20201 3.329 3.72973 4.96168 1.85421C5.44312 1.30008 4.31272 -0.277061 2.68003 1.47059C0.3566 3.92155 -0.0201318 6.20201 0.000800075 14.7271C0.0217319 20.9078 0.168336 23.0391 3.32904 24.1687C4.71054 24.6589 6.84555 24.8081 10.6133 24.8933C26.3749 25.2556 26.2493 25.3409 25.9144 13.9172C25.8097 10.1022 25.768 6.71352 25.8308 6.39383C26.3122 4.09205 24.9306 1.34271 21.8118 0.809889C18.6511 0.191819 14.3182 0 9.04339 0Z" fill="white"/>
</svg>
