<svg width="27" height="25" viewBox="0 0 27 25" fill="none" xmlns="http://www.w3.org/2000/svg">
<path fill-rule="evenodd" clip-rule="evenodd" d="M9.91103 0.111914C7.08942 0.341142 6.49777 0.593293 7.27144 1.23513C7.47623 1.41852 9.4332 1.48729 13.6884 1.44144C21.3113 1.37268 22.5173 1.51021 23.4502 2.51882C24.4287 3.57327 26.2946 3.89419 26.2946 3.0002C26.2946 2.58758 24.679 1.0976 23.9053 0.7996C22.358 0.203605 13.8476 -0.209006 9.91103 0.111914ZM2.19714 1.87698C-2.08079 6.18648 0.422232 24.8915 5.1325 23.8371C6.01994 23.6308 5.99721 23.3099 5.0415 22.9202C3.19835 22.1408 2.72048 20.6279 3.19833 17.1665C3.47139 15.1952 3.51688 13.5447 3.4031 9.14352C3.24382 3.11481 3.40315 2.26666 4.70018 1.83113C5.45109 1.6019 5.0415 1.16637 4.01753 1.07468C3.1756 1.00591 2.97081 1.0976 2.19714 1.87698ZM18.2394 4.49018C16.8968 5.56756 17.6477 6.98877 19.5819 6.98877C20.9699 6.98877 21.7436 6.32401 21.7436 5.13202C21.7436 3.96295 19.4454 3.52742 18.2394 4.49018ZM24.3149 4.97156C23.655 6.89709 23.7005 7.99738 23.7005 18.8628C23.6323 19.0691 24.3149 21.476 21.3567 22.1179C20.1962 22.37 18.1255 22.4388 13.711 22.4846C6.31569 22.5992 5.95161 22.6451 6.77079 23.6079C8.06782 25.1895 21.5387 25.5334 24.4059 24.0663C26.2262 23.1265 27 19.3442 27 11.2983C26.9545 6.48448 25.225 2.31251 24.3149 4.97156ZM8.65951 9.14352C4.83669 12.7424 8.47741 19.0691 14.9626 18.0147C19.0357 17.3499 20.4466 8.79968 16.419 8.79968C15.6225 8.79968 15.5087 9.14353 16.1459 9.64783C19.4226 12.2381 15.8728 17.6479 11.9134 16.3642C7.86305 15.0576 8.77329 8.59338 13.2105 8.59338C14.2117 8.59338 14.826 8.13492 13.8248 7.72231C12.9601 7.35554 11.026 6.94293 8.65951 9.14352Z" fill="white"/>
</svg>
